<svg id="Layer_1" data-name="Layer 1" xmlns="http://www.w3.org/2000/svg" viewBox="0 0 299.19 178.65">
    <rect width="299.19" height="178.65" style="fill:#FFFFFF"/>
    <text transform="translate(19.1 29.21)" style="font-size:18px;fill:#231f20;">
        Total
    </text>
    <path d="M354.06,196.22a11.11,11.11,0,1,0,11.1,11.11A11.1,11.1,0,0,0,354.06,196.22Zm-.19,19.43a1.86,1.86,0,0,1,0-3.72,1.86,1.86,0,0,1,0,3.72Zm.69-5.88h-1.75c-.58-3.4,3.74-4.36,3.74-6.81,0-1.29-.91-2.3-2.64-2.3A4.41,4.41,0,0,0,350.8,202L349.62,201A6,6,0,0,1,354,199c2.67,0,4.46,1.47,4.46,3.74C358.49,206,354.15,206.68,354.56,209.77Z" transform="translate(-83.17 -181.74)" style="fill:#030202"/>
    <path d="M121.46,226.22a15,15,0,1,0,15,15A15,15,0,0,0,121.46,226.22Zm.18,25.6-6.49-11.24h4.34v-8.74h4v8.74h4.64Z" transform="translate(-83.17 -181.74)"/>
    <text transform="translate(62.85 64.75)" style="font-size:18px;fill:#231f20;letter-spacing:-0.021999782986111112em">
        -XX%
    </text>
    <text transform="translate(19.1 131.86)" style="font-size:18px;fill:#231f20;">2019</text>
    <text transform="translate(166.19 128.6)" style="font-size:18px;fill:#231f20;">2020</text>
    <text transform="translate(19.1 154.67)" style="font-size:18px;fill:#231f20;">R$ 10000 M</text>
    <text transform="translate(166.19 152.06)" style="font-size:18px;fill:#231f20;">R$ 10000 M</text>
</svg>